# xmcd CD database file
#
# Track frame offsets:
#	150
#	11737
#	23338
#	35969
#	50808
#	61674
#	75806
#	90749
#	104076
#	113461
#	124131
#	139868
#	160996
#	176247
#	196280
#	212038
#	230112
#	273939
#	286782
#	306527
#	323841
#
# Disc length: 4482 seconds
#
# Revision: 8
# Processed by: cddbd v1.5.2PL0 Copyright (c) Steve Scherf et al.
# Submitted via: CDex 1.51
#
DISCID=2b118015
DTITLE=Sammy Davis Jr. - Yes I Can! The Sammy Davis Jr. Story (Vol  1)
DYEAR=1999
DGENRE=Jazz
TTITLE0=Smile, Darn Ya, Smile
TTITLE1=The Gypsy In My Soul
TTITLE2=Hey There
TTITLE3=The Birth Of The Blues
TTITLE4=Easy To Love
TTITLE5=My Funny Valentine
TTITLE6=That Old Black Magic
TTITLE7=Love Me Or Leave Me
TTITLE8=Something's Gotta Give
TTITLE9=Too Close For Comfort
TTITLE10=There's A Small Hotel
TTITLE11=I Guess I'll Hang My Tears Out To Dry
TTITLE12=But Not For Me
TTITLE13=Bewitched
TTITLE14=I Got Plenty O' Nuttin'
TTITLE15=There's A Boat Dat's Leavin' Soon For New York
TTITLE16=Soliloquy
TTITLE17=Change Partners
TTITLE18=The Lady Is A Tramp
TTITLE19=Gee Baby, Ain't I Good To You
TTITLE20=Get On The Right Track, Baby
EXTD=YEAR: 1999
EXTT0=
EXTT1=
EXTT2=
EXTT3=
EXTT4=
EXTT5=
EXTT6=
EXTT7=
EXTT8=
EXTT9=
EXTT10=
EXTT11=
EXTT12=
EXTT13=
EXTT14=
EXTT15=
EXTT16=
EXTT17=
EXTT18=
EXTT19=
EXTT20=
PLAYORDER=
